<?xml version="1.0" standalone="no"?>
<!DOCTYPE svg PUBLIC "-//W3C//DTD SVG 1.1//EN" "http://www.w3.org/Graphics/SVG/1.1/DTD/svg11.dtd">
<svg xmlns="http://www.w3.org/2000/svg" xmlns:xlink="http://www.w3.org/1999/xlink" width="375" zoomAndPan="magnify" viewBox="0 0 375 374.999991" height="375" preserveAspectRatio="xMidYMid meet" version="1.0"><defs><g/><clipPath id="2f0b89c9cd"><path d="M 112.5 62.085938 L 188 62.085938 L 188 191.835938 L 112.5 191.835938 Z M 112.5 62.085938 " clip-rule="nonzero"/></clipPath><clipPath id="1b5166e33a"><path d="M 187 62.085938 L 262.5 62.085938 L 262.5 191.835938 L 187 191.835938 Z M 187 62.085938 " clip-rule="nonzero"/></clipPath><clipPath id="5781062a29"><path d="M 112.5 148 L 262.5 148 L 262.5 191.835938 L 112.5 191.835938 Z M 112.5 148 " clip-rule="nonzero"/></clipPath></defs><rect x="-37.5" width="450" fill="#ffffff" y="-37.499999" height="449.999989" fill-opacity="1"/><rect x="-37.5" width="450" fill="#ffffff" y="-37.499999" height="449.999989" fill-opacity="1"/><path fill="#7000ff" d="M 187.5 63.519531 L 187.5 148.464844 L 113.9375 190.9375 Z M 187.5 63.519531 " fill-opacity="1" fill-rule="nonzero"/><g clip-path="url(#2f0b89c9cd)"><path fill="#000000" d="M 112.886719 191.984375 L 187.886719 62.085938 L 187.886719 148.6875 L 187.695312 148.796875 Z M 187.117188 64.957031 L 114.988281 189.882812 L 187.117188 148.242188 Z M 187.117188 64.957031 " fill-opacity="1" fill-rule="nonzero"/></g><path fill="#3e07a6" d="M 261.066406 190.9375 L 187.5 148.464844 L 187.5 63.519531 Z M 261.066406 190.9375 " fill-opacity="1" fill-rule="nonzero"/><g clip-path="url(#1b5166e33a)"><path fill="#000000" d="M 262.117188 191.984375 L 187.117188 148.6875 L 187.117188 62.085938 Z M 187.886719 148.242188 L 260.015625 189.882812 L 187.886719 64.957031 Z M 187.886719 148.242188 " fill-opacity="1" fill-rule="nonzero"/></g><path fill="#300064" d="M 261.066406 190.9375 L 113.9375 190.9375 L 187.5 148.464844 Z M 261.066406 190.9375 " fill-opacity="1" fill-rule="nonzero"/><g clip-path="url(#5781062a29)"><path fill="#000000" d="M 262.5 191.320312 L 112.5 191.320312 L 187.5 148.019531 L 187.695312 148.132812 Z M 115.371094 190.550781 L 259.632812 190.550781 L 187.5 148.910156 Z M 115.371094 190.550781 " fill-opacity="1" fill-rule="nonzero"/></g><g fill="#000000" fill-opacity="1"><g transform="translate(45.701762, 247.354982)"><g><path d="M 32.371094 -33.980469 L 27.539062 -33.980469 C 27.023438 -33.980469 26.621094 -33.621094 26.398438 -33.128906 L 17.15625 -11.675781 L 7.898438 -33.128906 C 7.695312 -33.601562 7.292969 -33.980469 6.710938 -33.980469 L 1.945312 -33.980469 C 1.207031 -33.980469 0.894531 -33.535156 1.1875 -32.839844 L 15.75 -0.535156 C 16.039062 0.132812 16.554688 0.515625 17.089844 0.515625 L 17.179688 0.515625 C 17.738281 0.515625 18.1875 0.132812 18.5 -0.535156 L 33.085938 -32.863281 C 33.375 -33.511719 33.109375 -33.980469 32.371094 -33.980469 Z M 32.371094 -33.980469 "/></g></g></g><g fill="#000000" fill-opacity="1"><g transform="translate(92.558912, 247.354982)"><g><path d="M 14.160156 -36.621094 L 16.53125 -36.597656 C 17.15625 -36.597656 17.492188 -36.597656 18.054688 -37.179688 L 23.332031 -41.878906 C 23.847656 -42.390625 23.710938 -43.128906 23.109375 -43.21875 L 20.132812 -43.21875 C 19.550781 -43.21875 19.058594 -43.199219 18.65625 -42.617188 L 13.914062 -37.828125 C 13.46875 -37.246094 13.554688 -36.664062 14.160156 -36.621094 Z M 28.65625 -5.996094 L 10.378906 -5.996094 L 10.378906 -12.816406 L 24.585938 -12.816406 C 25.324219 -12.816406 25.769531 -13.222656 25.769531 -13.824219 L 25.769531 -17.5625 C 25.769531 -18.230469 25.324219 -18.613281 24.585938 -18.613281 L 10.378906 -18.613281 L 10.378906 -27.984375 L 28.523438 -27.984375 C 29.171875 -27.984375 29.550781 -28.367188 29.550781 -29.015625 L 29.550781 -32.996094 C 29.550781 -33.601562 29.171875 -33.980469 28.523438 -33.980469 L 5.054688 -33.980469 C 4.40625 -33.980469 4.050781 -33.644531 4.050781 -32.972656 L 4.050781 -0.984375 C 4.050781 -0.359375 4.40625 0 5.054688 0 L 28.992188 0 C 29.617188 0 30.019531 -0.378906 30.019531 -0.984375 L 30.019531 -4.742188 C 30.019531 -5.503906 29.484375 -5.996094 28.65625 -5.996094 Z M 28.65625 -5.996094 "/></g></g></g><g fill="#000000" fill-opacity="1"><g transform="translate(137.448281, 247.354982)"><g><path d="M 25.390625 -10.042969 C 28.949219 -12.324219 31.140625 -16.175781 31.140625 -20.804688 C 31.140625 -28.457031 25.367188 -33.980469 17.402344 -33.980469 L 9.460938 -33.980469 C 8.925781 -33.980469 7.472656 -33.980469 6.175781 -33.980469 L 5.054688 -33.980469 C 4.472656 -33.980469 4.050781 -33.578125 4.050781 -33.019531 L 4.050781 -0.960938 C 4.050781 -0.359375 4.472656 0.0234375 5.054688 0.0234375 L 9.351562 0.0234375 C 9.953125 0.0234375 10.378906 -0.359375 10.378906 -0.960938 L 10.378906 -7.851562 L 17.402344 -7.851562 C 18.210938 -7.851562 18.96875 -7.898438 19.730469 -8.007812 L 23.242188 -0.804688 C 23.488281 -0.335938 23.957031 0.0234375 24.382812 0.0234375 L 29.304688 0.0234375 C 30.019531 0.0234375 30.289062 -0.492188 29.953125 -1.140625 Z M 17 -13.132812 L 10.378906 -13.132812 L 10.378906 -28.457031 L 17 -28.457031 C 21.476562 -28.457031 24.832031 -25.257812 24.832031 -20.847656 C 24.832031 -16.308594 21.566406 -13.132812 17 -13.132812 Z M 17 -13.132812 "/></g></g></g><g fill="#000000" fill-opacity="1"><g transform="translate(183.970032, 247.354982)"><g><path d="M 1.320312 -29.460938 C 1.320312 -28.8125 1.699219 -28.457031 2.304688 -28.457031 L 10.761719 -28.457031 L 10.761719 -0.960938 C 10.761719 -0.335938 11.117188 0.0234375 11.746094 0.0234375 L 16.0625 0.0234375 C 16.710938 0.0234375 17.070312 -0.335938 17.070312 -0.960938 L 17.070312 -28.457031 L 25.59375 -28.457031 C 26.195312 -28.457031 26.554688 -28.835938 26.554688 -29.460938 L 26.554688 -32.996094 C 26.554688 -33.601562 26.195312 -33.980469 25.59375 -33.980469 L 2.304688 -33.980469 C 1.679688 -33.980469 1.320312 -33.621094 1.320312 -32.996094 Z M 1.320312 -29.460938 "/></g></g></g><g fill="#000000" fill-opacity="1"><g transform="translate(224.431889, 247.354982)"><g><path d="M 10.359375 -33.265625 C 10.359375 -33.757812 10.089844 -34.027344 9.597656 -34.027344 L 4.789062 -34.027344 C 4.316406 -34.027344 4.050781 -33.757812 4.050781 -33.265625 L 4.050781 -0.714844 C 4.050781 -0.246094 4.316406 0.0234375 4.789062 0.0234375 L 9.597656 0.0234375 C 10.089844 0.0234375 10.359375 -0.246094 10.359375 -0.714844 Z M 10.359375 -33.265625 "/></g></g></g><g fill="#000000" fill-opacity="1"><g transform="translate(251.432336, 247.354982)"><g><path d="M 26.507812 -8.164062 C 24.628906 -6.644531 22.011719 -5.773438 19.820312 -5.773438 C 13.445312 -5.773438 8.320312 -10.671875 8.320312 -16.957031 C 8.320312 -23.242188 13.421875 -28.210938 19.820312 -28.210938 C 22.125 -28.210938 24.695312 -27.359375 26.578125 -25.75 C 27.15625 -25.277344 27.785156 -25.414062 28.03125 -25.792969 L 30.582031 -29.640625 C 30.828125 -30 30.804688 -30.511719 30.246094 -30.9375 C 27.449219 -33.175781 23.21875 -34.496094 19.820312 -34.496094 C 9.886719 -34.496094 2.011719 -26.800781 2.011719 -16.957031 C 2.011719 -7.113281 9.886719 0.535156 19.820312 0.535156 C 23.308594 0.535156 27.425781 -0.851562 30.109375 -2.953125 C 30.601562 -3.3125 30.804688 -3.890625 30.582031 -4.226562 L 28.03125 -8.121094 C 27.738281 -8.546875 27.066406 -8.566406 26.507812 -8.164062 Z M 26.507812 -8.164062 "/></g></g></g><g fill="#000000" fill-opacity="1"><g transform="translate(296.970186, 247.354982)"><g><path d="M 28.65625 -5.996094 L 10.378906 -5.996094 L 10.378906 -12.816406 L 24.585938 -12.816406 C 25.324219 -12.816406 25.769531 -13.222656 25.769531 -13.824219 L 25.769531 -17.5625 C 25.769531 -18.230469 25.324219 -18.613281 24.585938 -18.613281 L 10.378906 -18.613281 L 10.378906 -27.984375 L 28.523438 -27.984375 C 29.171875 -27.984375 29.550781 -28.367188 29.550781 -29.015625 L 29.550781 -32.996094 C 29.550781 -33.601562 29.171875 -33.980469 28.523438 -33.980469 L 5.054688 -33.980469 C 4.40625 -33.980469 4.050781 -33.644531 4.050781 -32.972656 L 4.050781 -0.984375 C 4.050781 -0.359375 4.40625 0 5.054688 0 L 28.992188 0 C 29.617188 0 30.019531 -0.378906 30.019531 -0.984375 L 30.019531 -4.742188 C 30.019531 -5.503906 29.484375 -5.996094 28.65625 -5.996094 Z M 28.65625 -5.996094 "/></g></g></g></svg>